<?xml version="1.0"?>
<svg version="1.1" xmlns="http://www.w3.org/2000/svg" xmlns:xlink="http://www.w3.org/1999/xlink" width="400" height="400">
    <desc iVinci="yes" version="4.4" gridStep="20" showGrid="no" snapToGrid="no" codePlatform="0"/>
    <g id="Layer1">
        <g id="Shape1">
            <desc type="0" basicInfo-basicType="4" basicInfo-roundedRectRadius="12" basicInfo-polygonSides="6" basicInfo-starPoints="5" bounding="rect(-106.5,-106.5,213,213)" text="" font-familyName="Helvetica" font-pixelSize="20" font-bold="0" font-underline="0" font-alignment="1" strokeStyle="0" markerStart="0" markerEnd="0" shadowEnabled="0" shadowOffsetX="0" shadowOffsetY="2" shadowBlur="4" shadowOpacity="160" blurEnabled="0" blurRadius="4" transform="matrix(1,0,0,1,224,200)" pers-center="0,0" pers-size="0,0" pers-start="0,0" pers-end="0,0" locked="0" mesh="" flag=""/>
            <path id="shapePath1" d="M117.5,200 C117.5,141.182 165.182,93.5 224,93.5 C282.818,93.5 330.5,141.182 330.5,200 C330.5,258.818 282.818,306.5 224,306.5 C165.182,306.5 117.5,258.818 117.5,200 Z" style="stroke:#631ba1;stroke-opacity:1;stroke-width:10;stroke-linejoin:miter;stroke-miterlimit:2;stroke-linecap:round;fill-rule:evenodd;fill:#ffffff;fill-opacity:0.784314;"/>
        </g>
        <g id="Shape2">
            <desc type="0" basicInfo-basicType="4" basicInfo-roundedRectRadius="12" basicInfo-polygonSides="6" basicInfo-starPoints="5" bounding="rect(-106.5,-106.5,212.999,213)" text="" font-familyName="Helvetica" font-pixelSize="20" font-bold="0" font-underline="0" font-alignment="1" strokeStyle="0" markerStart="0" markerEnd="0" shadowEnabled="0" shadowOffsetX="0" shadowOffsetY="2" shadowBlur="4" shadowOpacity="160" blurEnabled="0" blurRadius="4" transform="matrix(0.201878,0,0,0.201878,96.0001,72)" pers-center="0,0" pers-size="0,0" pers-start="0,0" pers-end="0,0" locked="0" mesh="" flag=""/>
            <path id="shapePath2" d="M74.5001,72 C74.5001,60.1259 84.126,50.5 96.0001,50.5 C107.874,50.5 117.5,60.1259 117.5,72 C117.5,83.8741 107.874,93.5 96.0001,93.5 C84.1259,93.5 74.5001,83.8741 74.5001,72 Z" style="stroke:#631ba1;stroke-opacity:1;stroke-width:10;stroke-linejoin:miter;stroke-miterlimit:2;stroke-linecap:round;fill:none;"/>
        </g>
        <g id="Shape3">
            <desc type="0" basicInfo-basicType="4" basicInfo-roundedRectRadius="12" basicInfo-polygonSides="6" basicInfo-starPoints="5" bounding="rect(-106.5,-106.5,212.999,213)" text="" font-familyName="Helvetica" font-pixelSize="20" font-bold="0" font-underline="0" font-alignment="1" strokeStyle="0" markerStart="0" markerEnd="0" shadowEnabled="0" shadowOffsetX="0" shadowOffsetY="2" shadowBlur="4" shadowOpacity="160" blurEnabled="0" blurRadius="4" transform="matrix(0.201878,0,0,0.201878,96.0001,328)" pers-center="0,0" pers-size="0,0" pers-start="0,0" pers-end="0,0" locked="0" mesh="" flag=""/>
            <path id="shapePath3" d="M74.5001,328 C74.5001,316.126 84.126,306.5 96.0001,306.5 C107.874,306.5 117.5,316.126 117.5,328 C117.5,339.874 107.874,349.5 96.0001,349.5 C84.1259,349.5 74.5001,339.874 74.5001,328 Z" style="stroke:#631ba1;stroke-opacity:1;stroke-width:10;stroke-linejoin:miter;stroke-miterlimit:2;stroke-linecap:round;fill:none;"/>
        </g>
        <g id="Shape4">
            <desc type="0" basicInfo-basicType="4" basicInfo-roundedRectRadius="12" basicInfo-polygonSides="6" basicInfo-starPoints="5" bounding="rect(-106.5,-106.5,213,213)" text="" font-familyName="Helvetica" font-pixelSize="20" font-bold="0" font-underline="0" font-alignment="1" strokeStyle="0" markerStart="0" markerEnd="0" shadowEnabled="0" shadowOffsetX="0" shadowOffsetY="2" shadowBlur="4" shadowOpacity="160" blurEnabled="0" blurRadius="4" transform="matrix(0.201878,0,0,0.201878,74.5001,200)" pers-center="0,0" pers-size="0,0" pers-start="0,0" pers-end="0,0" locked="0" mesh="" flag=""/>
            <path id="shapePath4" d="M53.0001,200 C53.0001,188.126 62.626,178.5 74.5001,178.5 C86.3742,178.5 96.0001,188.126 96.0001,200 C96.0001,211.874 86.3742,221.5 74.5001,221.5 C62.626,221.5 53.0001,211.874 53.0001,200 Z" style="stroke:#631ba1;stroke-opacity:1;stroke-width:10;stroke-linejoin:miter;stroke-miterlimit:2;stroke-linecap:round;fill:none;"/>
        </g>
        <g id="Shape5">
            <desc type="2" basicInfo-basicType="0" basicInfo-roundedRectRadius="12" basicInfo-polygonSides="6" basicInfo-starPoints="5" bounding="rect(-66,-56.5,132,113)" text="DB" font-familyName="Source Code Pro" font-pixelSize="140" font-bold="1" font-underline="0" font-alignment="1" strokeStyle="0" markerStart="0" markerEnd="0" shadowEnabled="0" shadowOffsetX="0" shadowOffsetY="2" shadowBlur="4" shadowOpacity="160" blurEnabled="0" blurRadius="4" transform="matrix(1,0,0,1,222.18,196.53)" pers-center="0,0" pers-size="0,0" pers-start="0,0" pers-end="0,0" locked="0" mesh="" flag=""/>
            <path id="shapePath5" d="M148.68,154.22 L172.34,154.22 C185.873,154.22 196.443,158 204.05,165.56 C211.657,173.12 215.46,184.46 215.46,199.58 C215.46,207.14 214.48,213.813 212.52,219.6 C210.56,225.387 207.76,230.217 204.12,234.09 C200.48,237.963 196.047,240.88 190.82,242.84 C185.593,244.8 179.713,245.78 173.18,245.78 L148.68,245.78 L148.68,154.22 M171.36,232.62 C180.133,232.62 186.9,229.937 191.66,224.57 C196.42,219.203 198.8,210.873 198.8,199.58 C198.8,188.38 196.42,180.213 191.66,175.08 C186.9,169.947 180.133,167.38 171.36,167.38 L164.92,167.38 L164.92,232.62 L171.36,232.62 M235.2,154.22 L262.22,154.22 C266.887,154.22 271.203,154.617 275.17,155.41 C279.137,156.203 282.567,157.463 285.46,159.19 C288.353,160.917 290.617,163.227 292.25,166.12 C293.883,169.013 294.7,172.56 294.7,176.76 C294.7,181.147 293.393,185.207 290.78,188.94 C288.167,192.673 284.153,195.24 278.74,196.64 L278.74,197.2 C285.46,198.32 290.57,200.677 294.07,204.27 C297.57,207.863 299.32,212.74 299.32,218.9 C299.32,223.473 298.457,227.44 296.73,230.8 C295.003,234.16 292.577,236.96 289.45,239.2 C286.323,241.44 282.637,243.097 278.39,244.17 C274.143,245.243 269.5,245.78 264.46,245.78 L235.2,245.78 L235.2,154.22 M260.68,192.16 C267.12,192.16 271.74,190.993 274.54,188.66 C277.34,186.327 278.74,183.013 278.74,178.72 C278.74,174.52 277.27,171.487 274.33,169.62 C271.39,167.753 266.98,166.82 261.1,166.82 L251.44,166.82 L251.44,192.16 L260.68,192.16 M262.78,233.18 C269.5,233.18 274.633,231.92 278.18,229.4 C281.727,226.88 283.5,223.007 283.5,217.78 C283.5,208.447 276.593,203.78 262.78,203.78 L251.44,203.78 L251.44,233.18 L262.78,233.18 " style="stroke:none;fill-rule:nonzero;fill:#000000;fill-opacity:1;"/>
        </g>
    </g>
</svg>
